<?xml version="1.0" encoding="UTF-8" ?>
<!DOCTYPE svg PUBLIC "-//W3C//DTD SVG 1.1//EN" "http://www.w3.org/Graphics/SVG/1.1/DTD/svg11.dtd">
<svg width="772pt" height="772pt" viewBox="0 0 772 772" version="1.1" xmlns="http://www.w3.org/2000/svg">
<path fill="#fefefe" d=" M 0.00 0.00 L 772.00 0.00 L 772.00 772.00 L 0.00 772.00 L 0.00 0.00 Z" />
<path fill="#0a0a0a" d=" M 368.22 94.84 C 372.12 93.80 376.14 95.47 379.09 98.00 C 400.40 117.99 420.69 139.02 441.85 159.16 C 452.78 169.89 463.77 180.56 474.53 191.46 C 478.44 195.43 481.60 202.00 487.97 201.71 C 504.14 203.84 519.55 211.38 531.11 222.90 C 545.08 236.04 554.02 254.26 556.45 273.24 C 556.82 280.07 556.81 286.92 556.41 293.75 C 554.46 307.39 549.33 320.82 540.44 331.45 C 537.40 334.94 532.39 335.26 528.19 334.18 C 524.42 332.60 521.47 329.41 519.75 325.74 C 518.66 320.90 518.66 315.25 522.34 311.46 C 538.42 289.78 532.86 256.67 512.26 239.87 C 507.00 235.49 500.95 232.06 494.40 230.03 C 487.62 227.55 480.26 228.33 473.20 228.51 C 464.34 229.96 455.99 234.31 449.54 240.54 C 440.62 249.54 435.93 262.40 436.39 275.00 C 436.11 286.48 439.74 297.74 444.89 307.89 C 455.42 329.63 459.84 354.92 454.05 378.62 C 450.09 395.22 440.72 410.59 427.30 421.22 C 414.35 431.91 397.71 437.74 381.01 438.43 C 352.70 438.95 325.05 424.16 308.73 401.18 C 305.02 395.67 299.90 391.37 295.04 386.93 C 292.26 384.31 288.54 382.91 285.98 380.03 C 274.37 368.30 262.17 357.16 250.52 345.47 C 231.41 326.23 211.62 307.70 192.44 288.53 C 187.92 284.17 188.19 276.02 192.76 271.79 C 228.29 235.31 264.15 199.15 299.54 162.54 C 319.58 142.58 339.01 122.02 358.95 101.95 C 361.73 99.24 364.20 95.75 368.22 94.84 Z" />
<path fill="#fefefe" d=" M 364.97 129.97 C 367.18 127.81 369.08 125.23 371.89 123.81 C 383.49 135.65 395.67 146.89 407.44 158.57 C 423.19 174.31 439.15 189.83 455.20 205.26 C 444.66 209.86 434.66 216.23 427.41 225.30 C 418.19 236.35 413.06 250.39 411.54 264.59 C 411.58 269.07 410.34 273.49 411.32 277.93 C 411.38 286.36 413.32 294.65 415.75 302.69 C 419.09 314.10 426.01 324.13 428.59 335.81 C 431.41 344.86 430.73 354.43 430.52 363.77 C 428.71 378.90 420.62 393.42 407.95 402.09 C 402.18 406.00 395.70 408.94 388.88 410.41 C 381.62 411.06 374.29 410.98 367.02 410.53 C 341.63 405.97 321.43 383.93 316.56 358.98 C 315.89 350.71 315.99 342.37 316.57 334.10 C 319.65 319.46 327.90 305.64 340.52 297.31 C 347.25 292.70 355.08 289.80 363.13 288.61 C 368.31 288.04 374.31 289.40 378.52 285.48 C 382.74 282.35 383.60 276.50 382.08 271.74 C 379.67 267.09 375.25 264.00 371.65 260.34 C 360.37 249.29 349.08 238.25 338.00 227.00 C 351.27 212.94 364.79 199.11 378.49 185.46 C 381.06 182.90 383.83 179.81 383.66 175.93 C 384.28 170.69 380.56 165.87 375.93 163.85 C 371.71 162.60 366.69 163.09 363.51 166.40 C 353.33 176.59 343.19 186.82 333.13 197.12 C 318.93 212.25 304.10 226.77 289.66 241.67 C 271.94 260.26 253.50 278.16 235.83 296.80 C 229.47 291.73 223.95 285.71 218.17 280.00 C 228.61 269.18 239.37 258.67 249.67 247.70 C 263.74 233.11 278.25 218.93 292.30 204.31 C 305.35 190.37 319.06 177.07 332.32 163.32 C 343.08 152.08 354.03 141.03 364.97 129.97 Z" />
<path fill="#fefefe" d=" M 296.38 269.39 C 304.63 261.10 312.46 252.40 320.97 244.39 C 328.48 251.38 335.66 258.72 342.92 265.96 C 321.25 273.92 303.63 291.79 295.83 313.50 C 291.38 325.32 289.88 338.02 290.45 350.59 C 278.10 338.89 265.94 327.00 253.92 314.97 C 252.86 314.23 253.46 312.88 254.29 312.28 C 268.19 297.85 282.34 283.68 296.38 269.39 Z" />
<path fill="#0a0a0a" d=" M 456.55 432.74 C 459.05 432.35 461.53 433.25 463.78 434.27 C 470.76 437.55 472.03 448.34 466.43 453.43 C 435.90 481.28 391.45 493.58 351.14 483.85 C 332.25 479.50 314.30 470.96 299.15 458.86 C 295.14 455.69 293.49 450.00 295.33 445.21 C 297.74 438.15 307.52 434.91 313.47 439.65 C 335.13 456.82 363.54 465.97 391.15 462.57 C 410.83 460.55 429.85 452.60 445.25 440.20 C 448.89 437.56 451.80 433.42 456.55 432.74 Z" />
</svg>
