<?xml version="1.0" standalone="no"?>
<!DOCTYPE svg PUBLIC "-//W3C//DTD SVG 20010904//EN"
 "http://www.w3.org/TR/2001/REC-SVG-20010904/DTD/svg10.dtd">
<svg version="1.0" xmlns="http://www.w3.org/2000/svg"
 width="413.000000pt" height="412.000000pt" viewBox="0 0 413.000000 412.000000"
 preserveAspectRatio="xMidYMid meet">

<g transform="translate(0.000000,412.000000) scale(0.100000,-0.100000)"
fill="#000000" stroke="none">
<path d="M1994 3997 c-11 -7 -144 -138 -295 -292 -151 -154 -470 -481 -709
-725 -239 -245 -506 -517 -592 -605 -174 -179 -188 -203 -152 -268 20 -36 903
-905 981 -966 78 -61 164 -143 203 -196 209 -281 563 -421 875 -346 508 123
739 670 511 1214 -18 45 -46 111 -61 147 -44 102 -61 224 -47 322 56 382 480
528 768 265 197 -180 238 -478 94 -692 -30 -46 -40 -70 -40 -101 0 -81 81
-154 155 -140 102 20 224 297 225 512 0 340 -220 661 -531 775 -44 16 -105 32
-136 36 l-58 6 -135 136 c-270 271 -911 895 -938 913 -31 20 -87 23 -118 5z
m482 -684 l415 -407 -75 -39 c-352 -184 -462 -634 -263 -1073 25 -54 55 -130
67 -169 26 -83 37 -246 22 -325 -45 -240 -208 -406 -437 -446 -253 -45 -516
98 -637 346 -59 120 -72 180 -71 306 2 158 52 286 154 399 92 100 216 159 360
171 71 6 86 11 115 36 39 35 52 84 34 129 -7 16 -110 124 -228 238 l-216 209
219 225 c120 125 225 238 233 253 27 51 -7 129 -67 154 -61 25 -97 7 -200 -98
-564 -580 -1197 -1222 -1206 -1222 -6 0 -46 36 -90 80 l-79 79 25 28 c13 15
215 223 449 462 234 240 565 578 735 753 171 174 314 317 319 318 4 0 194
-183 422 -407z m-812 -909 l108 -102 -54 -24 c-281 -130 -461 -407 -470 -727
l-3 -98 -185 180 c-102 98 -185 183 -185 188 0 12 666 690 675 687 4 -2 55
-49 114 -104z"/>
<path d="M2801 565 c-294 -232 -650 -296 -997 -180 -93 31 -220 97 -295 152
-63 47 -87 55 -134 42 -51 -14 -85 -61 -85 -117 0 -42 4 -50 49 -91 102 -96
315 -200 506 -247 125 -31 324 -42 446 -25 261 37 526 156 685 306 57 53 64
65 64 98 0 75 -50 127 -123 127 -26 0 -52 -14 -116 -65z"/>
</g>
</svg>
